<?xml version="1.0" encoding="utf-8" ?>
<svg xmlns="http://www.w3.org/2000/svg" xmlns:xlink="http://www.w3.org/1999/xlink" width="1024" height="1024">
	<path fill="#47AA49" transform="scale(2 2)" d="M235.777 58.7938C255.047 56.0356 279.355 57.7126 297.994 62.1262C449.089 95.3097 507.239 283.719 396.466 394.946C393.393 398.032 386.976 405.601 383.271 407.105L382.982 406.848C388.219 400.759 396.717 394.354 402.841 387.496C401.856 383.764 406.401 380.958 403.741 378.279L403.642 378.723C400.984 377.67 402.05 379.834 401.052 375.843L400.646 375.659C396.515 378.304 387.792 391.187 380.642 395.988L380.444 395.565C381.432 393.994 387.658 388.702 389.409 386.954C449.918 326.548 460.202 228.363 414.651 156.181C380.133 101.482 319.428 68.2693 254.572 68.4681C249.886 68.4824 245.187 68.8189 240.509 68.479L240.218 68.2416C245.225 68.0232 264.696 68.804 267.823 68.0572C270.941 65.0383 264.635 65.4973 271.103 65.0521C271.578 65.0194 276.105 58.5282 279.586 61.2272C279.402 61.5781 279.348 61.7435 279.281 62.119L279.641 62.5798C281.419 62.17 282.384 60.5835 283.985 59.9044C282.057 59.6305 281.902 61.2744 280.92 59.5425C273.224 59.2942 265.516 57.7449 257.84 57.7182C250.531 57.6929 243.279 59.1051 235.992 59.1773L235.777 58.7938Z"/>
	<path fill="#474747" transform="scale(2 2)" d="M235.777 58.7938L235.992 59.1773C243.279 59.1051 250.531 57.6929 257.84 57.7182C265.516 57.7449 273.224 59.2942 280.92 59.5425C281.902 61.2744 282.057 59.6305 283.985 59.9044C282.384 60.5835 281.419 62.17 279.641 62.5798L279.281 62.119C279.348 61.7435 279.402 61.5781 279.586 61.2272C276.105 58.5282 271.578 65.0194 271.103 65.0521C264.635 65.4973 270.941 65.0383 267.823 68.0572C264.696 68.804 245.225 68.0232 240.218 68.2416L240.509 68.479L240.068 68.6058C235.593 69.8691 230.695 70.1779 226.104 70.9238C170.731 79.9206 121.592 114.422 93.9026 163.179C42.9671 252.866 73.208 366.998 163.477 417.869C230.097 455.412 313.907 449.389 373.301 401.358C375.629 399.476 377.953 397.19 380.444 395.565L380.642 395.988C387.792 391.187 396.515 378.304 400.646 375.659L401.052 375.843C402.05 379.834 400.984 377.67 403.642 378.723L403.741 378.279C406.401 380.958 401.856 383.764 402.841 387.496C396.717 394.354 388.219 400.759 382.982 406.848L383.271 407.105C381.766 408.756 379.863 410.053 378.12 411.435C308.093 466.974 204.133 466.483 133.697 411.396C81.0361 370.21 52.5385 304.263 58.9535 237.476C67.666 146.767 137.06 73.3007 227.24 59.7758C230.011 59.3602 232.971 58.7998 235.777 58.7938Z"/>
	<path fill="#474747" transform="scale(2 2)" d="M185.553 258.805C189.892 258.108 193.153 259.502 197.244 260.723C196.868 284.877 208.837 304.189 228.861 316.551C228.615 319.979 227.28 323.149 226.093 326.335C225.737 327.138 225.335 327.921 224.948 328.709C200.814 315.743 181.96 286.553 185.553 258.805Z"/>
	<path fill="#474747" transform="scale(2 2)" d="M326.467 258.805C328.68 258.506 327.35 266.779 327.245 268.261C325.854 287.777 316.129 306.975 301.255 319.715C299.318 321.373 288.353 330.469 286.747 327.354C285.436 323.827 284.701 320.232 283.985 316.551C303.044 301.738 314.945 289.379 314.744 262.276C318.48 260.547 322.475 259.71 326.467 258.805Z"/>
	<path fill="#474747" transform="scale(2 2)" d="M250.347 191.751C267.314 191.076 284.428 194.364 299.253 202.862C295.864 205.664 292.956 209.02 289.988 212.253C279.411 207.411 274.914 206.023 262.945 204.002C249.391 202.319 234.281 206.452 222.223 212.253L213.827 202.862C225.033 195.83 237.463 193.48 250.347 191.751Z"/>
	<path fill="#474747" transform="scale(2 2)" d="M262.945 111.067C267.563 110.381 274.699 112.167 279.248 113.359C305.35 120.196 325.684 139.65 335.43 164.452C342.699 182.949 341.836 200.056 336.806 218.913C381.301 222.628 408.302 271.351 400.131 313.25C398.672 320.733 395.841 328.571 392.797 335.55L392.391 335.436L392.64 335.701L392.508 335.702C392.613 334.073 394.565 329.279 395.159 327.256C410.068 276.502 354.55 230.832 307.077 257.241C285.931 269.005 291.883 282.913 280.187 289.342C276.278 296.182 274.975 305.369 274.897 313.172C274.572 345.706 303.022 373.249 335.182 373.494C355.496 373.649 369.018 364.874 382.647 351.414C381.807 353.998 374.274 361.615 371.99 363.851C344.858 390.421 297.836 391.557 268.383 368.344C264.003 364.891 260.179 360.864 256.298 356.876C252.388 360.625 249.074 364.768 244.722 368.081C208.174 395.905 157.749 388.359 130.247 351.703L130.363 351.517C139.979 361.404 149.048 366.862 162.283 370.654C201.918 380.189 238.896 349.763 237.321 309.298C237.086 303.261 235.691 294.702 232.33 289.582C229.576 285.386 224.997 282.487 222.655 277.924C220.301 273.34 220.911 267.319 216.811 263.594C191.426 240.527 153.25 242.256 130.461 267.886C116.682 283.382 110.776 308.947 117.458 328.876C118.047 330.633 119.809 334.304 119.903 335.903C118.562 335.309 115.909 326.842 115.364 325.184C101.625 283.378 121.281 234.29 165.445 221.285C169.228 220.171 173.78 220.535 174.977 216.135L175.07 215.787C174.559 212.873 173.638 209.977 172.963 207.089C166.897 181.115 176.71 152.532 195.28 133.889C207.712 121.409 229.607 111.066 247.576 111.067C245.611 111.617 243.58 111.923 241.61 112.471C187.476 127.536 178.584 199.355 228.954 227.13C240.153 233.305 239.261 231.897 249.372 229.103C256.421 227.156 264.025 228.358 270.292 232.042L270.535 232.188C278.415 227.353 287.18 224.181 294.489 218.455C337.658 184.634 314.1 116.464 262.945 111.067ZM253.778 243.818C226.739 248.685 231.645 285.12 258.47 283.484C283.946 280.085 281.39 241.842 253.778 243.818Z"/>
</svg>
