<?xml version="1.0" encoding="utf-8" ?>
<svg xmlns="http://www.w3.org/2000/svg" xmlns:xlink="http://www.w3.org/1999/xlink" width="1024" height="1024">
	<path fill="#474747" transform="scale(2 2)" d="M248.816 42.2715C310.878 42.0356 366.166 62.6441 409.852 108.476C490.044 192.605 488.917 324.808 406.698 406.694C365.779 447.447 319.624 464.898 263.562 468.944C203.456 470.26 144.875 447.68 103.107 404.241C25.7121 323.749 23.3775 198.895 96.7123 114.701C137.177 68.245 188.764 46.3845 248.816 42.2715ZM246.773 53.2542C237.814 54.0403 228.838 54.6356 219.983 56.2938C116.66 75.6423 45.4365 170.046 54.6693 274.853C62.6956 365.964 134.576 442.123 225.065 455.687C238.654 457.724 251.992 458.168 265.7 458.149C279.6 456.186 291.48 455.442 305.654 452.02C403.399 428.424 471.173 329.522 456.991 229.73C442.046 124.572 352.605 49.8175 246.773 53.2542Z"/>
	<path fill="#474747" transform="scale(2 2)" d="M254.933 153.612C270.015 152.849 274.184 164.188 280.795 175.223L361.244 308.539C369.068 321.283 383.56 338.689 369.585 352.554C363.076 359.012 355.026 358.402 346.582 358.413L257.568 358.409L165.275 358.417C152.439 358.418 137.858 358.021 136.347 340.593C135.448 330.221 145.494 318.268 150.581 309.818L230.237 177.507C236.702 166.778 240.549 154.633 254.933 153.612ZM261.338 200.383L245.876 200.363C241.646 200.363 235.488 198.865 234.03 204.129C231.809 212.147 230.272 220.414 228.35 228.51L223.373 249.515C213.852 288.331 212.286 277.674 246.773 279.35C241.616 293.891 232.984 316.637 229.709 331.204C229.184 333.536 231.608 337.109 234.16 336.006C236.699 334.909 243.049 325.438 245.062 322.749C255.779 308.683 266.954 294.844 278.164 281.165L289.958 266.96C299.247 255.584 296.834 255.407 283.003 255.477L267.228 255.533C253.074 255.698 256.327 254.991 261.253 244.922L276.982 213.214C278.635 209.862 280.451 206.563 281.401 202.927C278.161 198.132 266.421 200.427 261.338 200.383Z"/>
	<path fill="#FECC3C" transform="scale(2 2)" d="M307.733 274.234C315.898 274.116 309.618 292.321 309.084 298.588C333.705 296.956 333.116 294.333 318.274 315.128C313.417 321.934 308.711 328.877 303.714 335.579C302.195 337.494 299.814 338.535 298.082 336.181C296.715 334.324 299.202 316.969 299.752 313.83C296.84 313.516 282.248 312.994 283.22 308.88C283.429 307.994 304.718 276.201 307.733 274.234Z"/>
	<path fill="#474747" transform="scale(2 2)" d="M303.714 289.184C304.02 291.208 302.256 301.709 302.139 305.099C307.629 305.05 313.077 304.203 318.576 304.207C314.325 310.482 309.67 316.568 305.27 322.749L303.714 324.675C305.182 319.523 305.565 314.087 305.27 308.752C300.692 307.894 296.032 307.418 291.407 306.886C294.817 300.673 299.89 295.215 303.714 289.184Z"/>
</svg>
