<?xml version="1.0" encoding="utf-8" ?>
<svg xmlns="http://www.w3.org/2000/svg" xmlns:xlink="http://www.w3.org/1999/xlink" width="1024" height="1024">
	<path fill="#474747" transform="scale(2 2)" d="M100.36 60.1157C106.26 59.6787 112.501 60.1061 118.439 60.1098L393.459 60.1041C399.608 60.1034 405.911 59.8244 412.023 60.5499C432.306 62.9575 448.871 78.8113 451.275 99.3457C451.962 105.214 451.585 111.396 451.577 117.312L451.572 392.868C451.573 399.109 451.982 405.53 451.337 411.734C449.129 432.962 431.636 449.502 410.562 451.878L113.992 451.889C109.315 451.887 104.515 452.022 99.8693 451.457C79.0176 448.923 62.4897 431.392 60.6629 410.501C59.9987 402.905 60.319 395.143 60.3256 387.519L60.3029 113.692C60.2908 108.748 59.9399 103.515 60.5373 98.6091C63.0201 78.2181 79.8101 61.8244 100.36 60.1157ZM123.916 75.8961L110.584 75.8939C83.4832 75.9224 75.527 87.4189 75.5275 113.408L75.5392 403.002C75.7215 427.659 90.4628 436.16 113.245 436.081L387.875 436.055L400.215 436.059C427.2 436.018 436.221 422.884 436.247 397.045L436.245 113.919C436.261 81.5586 423.344 75.8355 393.315 75.8867L123.916 75.8961Z"/>
	<path fill="#474747" transform="scale(2 2)" d="M361.188 350.26C369.719 349.968 389.434 351.786 398.316 353.088C401.105 353.497 403.242 355.485 400.689 357.865C385.812 357.946 350.779 356 361.188 350.26Z"/>
	<path fill="#474747" transform="scale(2 2)" d="M400.689 311.499C410.724 312.594 390.23 323.998 388.936 324.915L372.44 336.561C369.004 339 365.617 341.587 362.037 343.809C358.284 343.654 359.273 340.244 361.604 338.402C368.826 332.693 393.379 314.88 400.689 311.499Z"/>
	<path fill="#474747" transform="scale(2 2)" d="M370.579 289.026C377.149 289.209 370.896 298.105 369.539 300.993C367.308 305.737 354.788 335.276 351.939 337.328C344.225 336.611 356.718 317.162 358.721 312.803C361.078 307.67 366.773 292.155 370.579 289.026Z"/>
	<path fill="#DFC63C" transform="scale(2 2)" d="M336.746 341.313C338.133 341.197 339.488 341.255 340.875 341.313L341.218 341.6C344.134 344.053 346.509 348.064 348.777 351.154L359.384 365.628C362.423 369.799 372.44 379.336 367.224 384.757C364.924 387.148 358.862 386.268 355.905 386.266L340.875 386.241L324.142 386.269C317.759 386.273 310.252 387.884 308.347 379.943C309.751 375.761 331.549 343.875 336.746 341.313Z"/>
	<path fill="#474747" transform="scale(2 2)" d="M175.68 175.251C207.884 172.329 211.556 217.35 182.119 221.667C152.819 225.886 143.336 180.739 175.68 175.251Z"/>
	<path fill="#474747" transform="scale(2 2)" d="M266.386 173.621C270.472 173.139 274.313 174.263 276.599 178.01C281.455 185.971 268.528 196.007 263.889 201.105C255.972 209.804 254.57 213.652 243.296 218.539L230.646 224.014C227.745 225.271 224.677 226.458 221.965 228.089L221.669 228.269L253.71 263.085C261.286 261.496 289.993 257.204 294.881 257.838C299.445 258.43 304.515 261.096 308.76 262.875L328.828 271.478C336.001 274.602 349.864 278.057 352.672 285.716C355.499 293.428 349.534 302.313 341.133 301.969C330.99 301.555 306.337 284.904 293.863 282.616C289.293 281.778 255.301 287.271 250.062 289.026C256.863 291.892 262.95 296.603 269.113 300.6C289.564 313.865 285.099 311.013 293.172 332.573L299.441 349.51C302.021 356.381 306.497 363.803 302.724 371.028C298.801 377.194 289.027 379.354 283.88 373.454C280.146 369.174 271.536 343.401 269.06 336.245C265.329 325.46 266.323 327.791 256.761 321.735L235.117 307.971C219.487 298.102 218.324 297.103 207.13 281.583C201.546 273.842 196.128 265.896 190.35 258.308C186.284 265.882 181.823 273.226 177.981 280.925L184.076 299.941C185.258 303.637 186.976 307.73 187.369 311.586C188.089 318.639 180.601 323.124 174.474 320.236C168.44 317.391 165.17 300.517 163.333 294.512C161.227 287.626 157.452 281.391 160.791 274.358C164.875 265.755 169.801 257.462 174.18 248.999C187.125 223.978 188.215 221.904 215.968 209.787L230.575 203.453C233.743 202.099 237.61 200.929 240.39 198.935C248.458 193.15 257.822 176.733 266.386 173.621Z"/>
</svg>
