<?xml version="1.0" encoding="utf-8" ?>
<svg xmlns="http://www.w3.org/2000/svg" xmlns:xlink="http://www.w3.org/1999/xlink" width="1024" height="1024">
	<path fill="#474747" transform="scale(2 2)" d="M247.575 60.5008C261.414 60.4025 275.065 60.9939 288.748 63.2318C375.375 77.4004 444.199 152.843 450.6 240.493C457.479 334.688 397.263 420.122 305.86 443.925C292.352 447.443 278.627 449.321 264.725 450.319C254.385 450.218 244.263 450.408 233.95 449.342C154.064 441.084 85.8789 380.58 66.5095 302.709C41.0072 200.184 104.565 92.3982 207.373 66.5322C221.35 63.0156 233.376 61.7795 247.575 60.5008ZM251.706 70.9952C241.568 71.6181 231.562 72.3229 221.563 74.2264C115.834 94.3536 49.0392 204.086 78.2063 306.607C98.7225 378.721 162.647 431.584 236.914 439.328C244.709 440.141 253.279 441.07 261.075 440.52L261.418 440.494C281.742 438.874 300.98 435.783 320.104 428.708C397.208 400.182 447 323.903 440.312 241.331C432.408 143.743 349.349 69.0391 251.706 70.9952Z"/>
	<path fill="#00A643" transform="scale(2 2)" d="M166.978 199.333C171.311 198.162 175.306 199.295 178.541 202.523C178.79 226.751 187.988 239.573 202.35 256.58C200.662 268.113 203.819 276.518 213.929 283.127C213.278 283.845 212.51 284.46 211.779 285.094C207.45 282.149 199.694 273.009 195.469 268.851C183.983 257.956 184.164 253.121 166.25 253.381C158.283 253.496 146.921 255.53 141.2 248.516C136.255 242.452 137.119 233.226 143.315 228.373C148.497 224.313 154.681 225.072 160.787 225.799C152.183 216.3 152.843 200.342 166.978 199.333Z"/>
	<path fill="#00A643" transform="scale(2 2)" d="M343.176 199.333C348.819 198.95 353.72 201.473 356.606 206.47C360.283 212.836 357.635 217.652 355.892 223.935C360.878 225.865 364.251 224.169 368.977 228.354C375.112 233.786 376.126 243.356 370.299 249.399C362.113 257.889 353.174 251.473 343.53 251.801C333.714 252.135 324.587 261.931 318.07 268.851C314.515 271.697 301.571 285.092 299.016 285.669C296.32 283.128 303.885 277.961 305.408 276.354C310.553 270.927 310.39 263.525 310.246 256.58C324.581 241.762 332.908 225.23 333.719 204.101C336.64 201.407 339.166 199.89 343.176 199.333Z"/>
	<path fill="#474747" transform="scale(2 2)" d="M296.504 294.587C298.148 295.944 299.514 297.782 300.972 299.345C325.401 325.516 328.262 304.518 344.033 312.424C352.597 316.717 356.727 327.596 352.115 336.262C348.932 342.243 343.255 343.29 337.379 345.155C334.624 348.82 335.628 355.364 332.692 360.713C327.089 368.948 314.518 370.831 307.107 363.758C298.275 355.33 305.348 345.211 299.834 336.004C294.685 327.406 285.832 322.206 279.84 314.424C288.454 309.806 294.102 304.624 296.504 294.587Z"/>
	<path fill="#474747" transform="scale(2 2)" d="M215.242 294.587L215.611 294.788C218.089 304.532 224.155 309.914 232.978 314.424C226.758 320.276 211.493 333.308 209.82 341.683C209.023 345.669 210.053 349.773 209.524 353.803C207.628 368.256 188.602 374.197 179.481 362.008C176.019 356.163 178.13 349.522 176.049 346.634C173.316 342.841 165.909 345.293 160.362 336.857C152.03 324.186 164.663 305.828 179.276 311.208C199.374 318.608 200.362 304.185 215.242 294.587Z"/>
	<path fill="#474747" transform="scale(2 2)" d="M253.802 133.38C291.399 132.778 323.124 161.85 323.676 199.917C323.888 214.47 319.641 230.393 310.297 241.785C301.056 253.052 299.395 246.297 300.008 262.136C300.38 271.756 292.721 271.929 289.531 276.932C285.23 283.679 289.912 292.855 282.848 300.051C276.754 306.258 266.456 304.752 258.562 304.728C250.42 304.755 238.862 306.69 231.679 301.949C222.72 296.037 225.73 285.771 223.843 276.748C208.035 269.203 213.387 266.428 211.83 252.358L211.779 251.923C211.73 251.855 211.681 251.785 211.631 251.717L211.376 251.38C209.365 248.661 206.517 246.675 204.342 244.071C168.303 200.908 196.416 136.921 253.802 133.38ZM228.437 201.598C203.624 204.169 204.975 240.36 231.804 238.991C258.265 235.317 251.732 198.019 228.437 201.598ZM278.749 201.598C268.824 202.966 260.877 212.663 262.366 222.739C263.79 232.368 275.166 241.344 284.558 238.991C313.08 235.489 299.844 196.953 278.749 201.598ZM235.105 275.486C232.615 277.066 234.503 287.067 235.954 289.033C239.574 293.942 248.569 292.262 253.798 292.261C266.575 292.257 278.729 296.416 278.749 280.188L278.749 275.486C275.335 275.542 271.928 275.611 268.515 275.486L268.515 281.741C266.153 281.748 263.778 281.81 261.418 281.741C261.326 279.649 261.357 277.578 261.418 275.486L251.706 275.486L251.706 281.741L244.617 281.741L244.617 275.486C241.462 275.403 238.257 275.317 235.105 275.486ZM255.052 238.991C250.616 242.619 243.775 254.24 243.132 259.943C242.489 265.658 254.906 263.625 258.562 263.627C263.045 263.73 267.264 264.966 269.616 260.421C267.827 253.552 262.74 240.984 255.052 238.991Z"/>
</svg>
