<?xml version="1.0" encoding="utf-8" ?>
<svg xmlns="http://www.w3.org/2000/svg" xmlns:xlink="http://www.w3.org/1999/xlink" width="1024" height="1024">
	<path fill="#474747" transform="scale(2 2)" d="M249.408 62.756C308.285 61.673 363.894 85.2915 402.153 130.085C492.327 235.661 443.221 403.19 306.725 440.678C291.753 444.789 277.417 446.785 261.938 447.483C205.431 447.62 152.709 427.557 113.801 385.385C51.0576 317.377 47.6062 208.57 104.841 136.206C136.48 96.2041 185.044 69.1621 235.718 63.754C240.267 63.2685 244.86 63.2883 249.408 62.756ZM249.408 77.5017C239.033 78.2378 228.681 79.3631 218.505 81.5762C121.448 102.684 60.6843 200.396 83.4698 296.94C103.036 379.844 178.28 434.487 262.812 432.54C360.811 427.01 438.548 347.12 432.807 246.938C427.064 146.704 348.966 76.5563 249.408 77.5017Z"/>
	<path fill="#4BBC69" transform="scale(2 2)" d="M252.351 227.832C288.164 222.92 302.936 280.304 260.286 288.252C219.801 292.997 211.458 234.773 252.351 227.832ZM254.41 238.335C227.742 241.928 231.079 279.009 257.837 277.988C285.372 273.993 278.532 235.805 254.41 238.335Z"/>
	<path fill="#474747" transform="scale(2 2)" d="M237.076 298.111C240.298 298.694 243.366 300.009 246.573 300.712C257.677 303.146 264.491 300.807 274.664 298.111C277.699 302.767 316.743 367.021 317.338 370.324C319.047 379.812 283.019 387.413 276.81 388.467C255.19 391.864 233.732 389.969 213.022 382.869C207.02 380.811 196.556 378.45 194.569 371.512C195.896 366.055 199.867 360.983 202.667 356.195L229.067 311.101C231.595 306.787 233.931 301.988 237.076 298.111Z"/>
	<path fill="#474747" transform="scale(2 2)" d="M178.519 148.263C185.275 147.991 191.905 163.424 195.345 169.022C206.42 187.043 219.774 205.373 230.101 223.377C218.266 233.976 213.989 237.822 211.816 255.281C199.014 255.601 186.124 255.284 173.312 255.281L144.243 255.298C128.414 255.317 118.128 258.052 121.985 236.279C127.453 205.418 143.004 177.466 166.351 156.592C169.904 153.415 173.894 149.69 178.519 148.263Z"/>
	<path fill="#474747" transform="scale(2 2)" d="M331.129 148.263C335.647 146.797 348.116 159.78 351.151 162.81C370.592 182.218 389.707 218.714 389.534 247.174C389.468 258.04 376.737 255.298 369.523 255.294L339.625 255.281L299.481 255.281C298.395 242.39 292.261 229.738 280.495 223.377C289.826 208.299 299.625 193.478 309.073 178.466L319.896 161.292C322.781 156.616 325.167 149.328 331.129 148.263Z"/>
</svg>
